<svg viewBox="0 0 64 64" xmlns="http://www.w3.org/2000/svg" role="img" aria-label="Insight Restart">
  <rect width="64" height="64" rx="15" fill="#272727"/>
  <g fill="none" stroke-linecap="round">
    <!-- left sound waves (bright -> gray outward) -->
    <path d="M19 24 A11 11 0 0 0 19 40" stroke="#ffffff" stroke-width="2.7"/>
    <path d="M14 21 A16 16 0 0 0 14 43" stroke="#c9c9c9" stroke-width="2.5"/>
    <path d="M9.5 18.5 A20.5 20.5 0 0 0 9.5 45.5" stroke="#9a9a9a" stroke-width="2.3"/>
    <!-- right sound waves -->
    <path d="M45 24 A11 11 0 0 1 45 40" stroke="#ffffff" stroke-width="2.7"/>
    <path d="M50 21 A16 16 0 0 1 50 43" stroke="#c9c9c9" stroke-width="2.5"/>
    <path d="M54.5 18.5 A20.5 20.5 0 0 1 54.5 45.5" stroke="#9a9a9a" stroke-width="2.3"/>
  </g>
  <!-- main ring -->
  <circle cx="32" cy="32" r="12.6" fill="none" stroke="#ffffff" stroke-width="3.4"/>
  <!-- stylized N with top-left dot -->
  <circle cx="26.6" cy="24.4" r="1.7" fill="#ffffff"/>
  <g fill="none" stroke="#ffffff" stroke-linecap="round" stroke-linejoin="round">
    <path d="M26.4 39.4 L26.4 27" stroke-width="3.5"/>
    <path d="M26.4 27 L37.4 39.4" stroke-width="4.6"/>
    <path d="M37.4 39.4 L37.4 25.2" stroke-width="3.5"/>
  </g>
</svg>
